<?xml version="1.0" encoding="utf-8"?>
<!-- Generator: Adobe Illustrator 19.0.0, SVG Export Plug-In . SVG Version: 6.00 Build 0)  -->
<svg version="1.1" id="Layer_1" xmlns="http://www.w3.org/2000/svg" xmlns:xlink="http://www.w3.org/1999/xlink" x="0px" y="0px"
	 viewBox="0 0 500 151" style="enable-background:new 0 0 500 151;" xml:space="preserve">
<style type="text/css">
	.st0{fill:#4285F4;}
	.st1{fill:#34A853;}
	.st2{fill:#EA4335;}
	.st3{fill:#FBBC05;}
</style>
<g id="XMLID_1_">
	<path id="XMLID_2_" class="st0" d="M3.6,99.2c6.4,3.9,15.8,7.2,25.6,7.2c14.6,0,23.2-7.7,23.2-18.9c0-10.4-5.9-16.3-20.9-22
		C13.5,59.1,2.3,49.8,2.3,34.2c0-17.2,14.3-30.1,35.8-30.1c11.3,0,19.5,2.6,24.5,5.4l-3.9,11.7c-3.6-2-11-5.3-21-5.3
		c-15.1,0-20.9,9-20.9,16.6c0,10.4,6.7,15.4,22,21.4C57.5,61.1,67,70.1,67,86.4c0,17.1-12.6,31.9-38.8,31.9
		c-10.7,0-22.3-3.1-28.3-7.1L3.6,99.2z"/>
	<path id="XMLID_5_" class="st1" d="M86.1,0h14.5v116.6H86.1V0z"/>
	<path id="XMLID_7_" class="st2" d="M196.8,76.2c0,29.4-20.4,42.2-39.6,42.2c-21.5,0-38.1-15.8-38.1-40.9
		c0-26.6,17.4-42.2,39.4-42.2C181.4,35.3,196.8,51.9,196.8,76.2z M133.7,77c0,17.4,10,30.6,24.1,30.6c13.8,0,24.1-13,24.1-30.9
		c0-13.5-6.7-30.6-23.8-30.6C141.1,46.2,133.7,61.9,133.7,77z"/>
	<path id="XMLID_10_" class="st3" d="M287,76.2c0,29.4-20.4,42.2-39.6,42.2c-21.5,0-38.1-15.8-38.1-40.9c0-26.6,17.4-42.2,39.4-42.2
		C271.5,35.3,287,51.9,287,76.2z M223.9,77c0,17.4,10,30.6,24.1,30.6c13.8,0,24.1-13,24.1-30.9c0-13.5-6.7-30.6-23.8-30.6
		C231.3,46.2,223.9,61.9,223.9,77z"/>
	<path id="XMLID_13_" class="st0" d="M373.7,37.1c-0.3,5.8-0.7,12.2-0.7,21.8v46.2c0,18.2-3.6,29.4-11.3,36.3
		c-7.7,7.2-18.9,9.5-28.9,9.5c-9.5,0-20-2.3-26.4-6.6l3.6-11c5.3,3.3,13.5,6.2,23.3,6.2c14.8,0,25.6-7.7,25.6-27.8V103h-0.3
		c-4.4,7.4-13,13.3-25.3,13.3c-19.7,0-33.8-16.8-33.8-38.8c0-26.9,17.6-42.2,35.8-42.2c13.8,0,21.4,7.2,24.8,13.8h0.3l0.7-12H373.7z
		 M358.8,68.5c0-2.5-0.2-4.6-0.8-6.6c-2.6-8.4-9.7-15.3-20.2-15.3c-13.8,0-23.7,11.7-23.7,30.1c0,15.6,7.9,28.6,23.5,28.6
		c8.9,0,16.9-5.6,20-14.8c0.8-2.5,1.1-5.3,1.1-7.7V68.5z"/>
	<path id="XMLID_16_" class="st1" d="M397,0h14.5v116.6H397V0z"/>
	<path id="XMLID_18_" class="st2" d="M443.9,79.5c0.3,19.5,12.8,27.6,27.3,27.6c10.4,0,16.6-1.8,22-4.1l2.5,10.3
		c-5.1,2.3-13.8,4.9-26.4,4.9c-24.5,0-39.1-16.1-39.1-40.1s14.1-42.9,37.3-42.9c26,0,32.9,22.8,32.9,37.5c0,3-0.3,5.3-0.5,6.7H443.9
		z M486.2,69.2c0.2-9.2-3.8-23.5-20-23.5c-14.6,0-21,13.5-22.2,23.5H486.2z"/>
</g>
</svg>
